<svg width="61" height="60" viewBox="0 0 61 60" fill="none" xmlns="http://www.w3.org/2000/svg">
<path d="M55.3759 4.60134H47.8246V2.30067C47.8246 1.69049 47.5594 1.10531 47.0874 0.67385C46.6154 0.242391 45.9751 0 45.3076 0C44.64 0 43.9997 0.242391 43.5277 0.67385C43.0557 1.10531 42.7905 1.69049 42.7905 2.30067V4.60134H17.6196V2.30067C17.6196 1.69049 17.3544 1.10531 16.8824 0.67385C16.4103 0.242391 15.7701 0 15.1025 0C14.4349 0 13.7947 0.242391 13.3227 0.67385C12.8506 1.10531 12.5854 1.69049 12.5854 2.30067V4.60134H5.03417C3.69903 4.60134 2.41857 5.08612 1.47447 5.94904C0.530384 6.81196 0 7.98233 0 9.20268V55.2161C0 56.4364 0.530384 57.6068 1.47447 58.4697C2.41857 59.3326 3.69903 59.8174 5.03417 59.8174H55.3759C56.711 59.8174 57.9915 59.3326 58.9356 58.4697C59.8797 57.6068 60.4101 56.4364 60.4101 55.2161V9.20268C60.4101 7.98233 59.8797 6.81196 58.9356 5.94904C57.9915 5.08612 56.711 4.60134 55.3759 4.60134ZM12.5854 9.20268V11.5033C12.5854 12.1135 12.8506 12.6987 13.3227 13.1302C13.7947 13.5616 14.4349 13.804 15.1025 13.804C15.7701 13.804 16.4103 13.5616 16.8824 13.1302C17.3544 12.6987 17.6196 12.1135 17.6196 11.5033V9.20268H42.7905V11.5033C42.7905 12.1135 43.0557 12.6987 43.5277 13.1302C43.9997 13.5616 44.64 13.804 45.3076 13.804C45.9751 13.804 46.6154 13.5616 47.0874 13.1302C47.5594 12.6987 47.8246 12.1135 47.8246 11.5033V9.20268H55.3759V18.4054H5.03417V9.20268H12.5854ZM55.3759 55.2161H5.03417V23.0067H55.3759V55.2161ZM43.3128 30.5816C43.5468 30.7953 43.7325 31.049 43.8591 31.3283C43.9858 31.6076 44.051 31.907 44.051 32.2094C44.051 32.5117 43.9858 32.8111 43.8591 33.0904C43.7325 33.3697 43.5468 33.6234 43.3128 33.8371L28.2102 47.6411C27.9765 47.855 27.6989 48.0247 27.3933 48.1405C27.0877 48.2563 26.7602 48.3159 26.4294 48.3159C26.0986 48.3159 25.7711 48.2563 25.4655 48.1405C25.1599 48.0247 24.8823 47.855 24.6486 47.6411L17.0973 40.7391C16.625 40.3074 16.3597 39.7219 16.3597 39.1114C16.3597 38.5009 16.625 37.9153 17.0973 37.4836C17.5696 37.0519 18.2102 36.8094 18.8781 36.8094C19.5461 36.8094 20.1867 37.0519 20.659 37.4836L26.4294 42.7608L39.7511 30.5816C39.9849 30.3677 40.2625 30.198 40.568 30.0823C40.8736 29.9665 41.2011 29.9069 41.5319 29.9069C41.8627 29.9069 42.1902 29.9665 42.4958 30.0823C42.8014 30.198 43.079 30.3677 43.3128 30.5816Z" fill="white"/>
</svg>
