<svg width="60" height="39" viewBox="0 0 60 39" fill="none" xmlns="http://www.w3.org/2000/svg">
<path d="M59.855 13.9388L56.355 5.94113C56.0581 5.26446 55.5457 4.68488 54.8842 4.27746C54.2227 3.87005 53.4426 3.65357 52.645 3.65608H44V1.82804C44 1.34321 43.7893 0.878245 43.4142 0.535421C43.0391 0.192597 42.5304 0 42 0H4C2.93913 0 1.92172 0.385193 1.17157 1.07084C0.421427 1.75649 0 2.68643 0 3.65608V29.2487C0 30.2183 0.421427 31.1482 1.17157 31.8339C1.92172 32.5195 2.93913 32.9047 4 32.9047H8.25C8.6906 34.4776 9.6914 35.8717 11.0946 36.8673C12.4978 37.8628 14.2237 38.4032 16 38.4032C17.7763 38.4032 19.5022 37.8628 20.9054 36.8673C22.3086 35.8717 23.3094 34.4776 23.75 32.9047H36.25C36.6906 34.4776 37.6914 35.8717 39.0946 36.8673C40.4978 37.8628 42.2237 38.4032 44 38.4032C45.7763 38.4032 47.5022 37.8628 48.9054 36.8673C50.3086 35.8717 51.3094 34.4776 51.75 32.9047H56C57.0609 32.9047 58.0783 32.5195 58.8284 31.8339C59.5786 31.1482 60 30.2183 60 29.2487V14.6243C60.0007 14.3894 59.9514 14.1566 59.855 13.9388ZM44 7.31216H52.645L55.045 12.7963H44V7.31216ZM4 3.65608H40V18.2804H4V3.65608ZM16 34.7328C15.2089 34.7328 14.4355 34.5184 13.7777 34.1166C13.1199 33.7149 12.6072 33.1439 12.3045 32.4758C12.0017 31.8078 11.9225 31.0726 12.0769 30.3634C12.2312 29.6542 12.6122 29.0028 13.1716 28.4915C13.731 27.9801 14.4437 27.6319 15.2196 27.4909C15.9956 27.3498 16.7998 27.4222 17.5307 27.6989C18.2616 27.9756 18.8864 28.4442 19.3259 29.0455C19.7654 29.6467 20 30.3536 20 31.0767C20 32.0463 19.5786 32.9763 18.8284 33.6619C18.0783 34.3476 17.0609 34.7328 16 34.7328ZM36.25 29.2487H23.75C23.3094 27.6758 22.3086 26.2817 20.9054 25.2861C19.5022 24.2906 17.7763 23.7502 16 23.7502C14.2237 23.7502 12.4978 24.2906 11.0946 25.2861C9.6914 26.2817 8.6906 27.6758 8.25 29.2487H4V21.9365H40V24.7494C39.0803 25.2353 38.2753 25.8831 37.6316 26.6555C36.9879 27.4278 36.5183 28.3092 36.25 29.2487ZM44 34.7328C43.2089 34.7328 42.4355 34.5184 41.7777 34.1166C41.1199 33.7149 40.6072 33.1439 40.3045 32.4758C40.0017 31.8078 39.9225 31.0726 40.0769 30.3634C40.2312 29.6542 40.6122 29.0028 41.1716 28.4915C41.731 27.9801 42.4437 27.6319 43.2196 27.4909C43.9956 27.3498 44.7998 27.4222 45.5307 27.6989C46.2616 27.9756 46.8863 28.4442 47.3259 29.0455C47.7654 29.6467 48 30.3536 48 31.0767C48 32.0463 47.5786 32.9763 46.8284 33.6619C46.0783 34.3476 45.0609 34.7328 44 34.7328ZM56 29.2487H51.75C51.3041 27.6796 50.3014 26.2901 48.899 25.2977C47.4966 24.3053 45.7736 23.7661 44 23.7645V16.4524H56V29.2487Z" fill="#F5F5F5"/>
</svg>
