<svg width="20" height="22" viewBox="0 0 20 22" fill="none" xmlns="http://www.w3.org/2000/svg">
<path d="M12.6244 16.9149L9.62438 21.4149C9.56971 21.4969 9.49944 21.5674 9.41756 21.6222C9.33568 21.677 9.2438 21.7152 9.14717 21.7345C8.95201 21.7735 8.74934 21.7335 8.58375 21.6231C8.41816 21.5127 8.3032 21.341 8.26417 21.1458C8.22514 20.9507 8.26523 20.748 8.37562 20.5824L11.3756 16.0824C11.486 15.9168 11.6577 15.8019 11.8528 15.7628C12.048 15.7238 12.2507 15.7639 12.4163 15.8743C12.5818 15.9847 12.6968 16.1564 12.7358 16.3515C12.7749 16.5467 12.7348 16.7493 12.6244 16.9149ZM19.5 7.12368C19.498 9.01274 18.7467 10.8239 17.4109 12.1596C16.0752 13.4954 14.2641 14.2467 12.375 14.2487H10.1512L7.37438 18.4149C7.31971 18.4969 7.24944 18.5674 7.16756 18.6222C7.08568 18.677 6.9938 18.7152 6.89717 18.7345C6.80054 18.7538 6.70104 18.7539 6.60437 18.7348C6.5077 18.7157 6.41574 18.6777 6.33375 18.6231C6.25176 18.5684 6.18133 18.4981 6.1265 18.4162C6.07166 18.3344 6.03349 18.2425 6.01417 18.1458C5.99484 18.0492 5.99474 17.9497 6.01386 17.8531C6.03298 17.7564 6.07096 17.6644 6.12562 17.5824L8.34844 14.2487H4.875C3.58207 14.2487 2.34209 13.7351 1.42785 12.8208C0.513614 11.9066 0 10.6666 0 9.37368C0 8.08075 0.513614 6.84078 1.42785 5.92654C2.34209 5.0123 3.58207 4.49868 4.875 4.49868C5.15526 4.49892 5.43499 4.52276 5.71125 4.56993C6.30939 3.01628 7.43217 1.7208 8.88506 0.907954C10.338 0.0951071 12.0294 -0.183898 13.6664 0.119279C15.3034 0.422457 16.7827 1.28871 17.8481 2.56797C18.9136 3.84722 19.4979 5.45887 19.5 7.12368ZM18 7.12368C17.994 5.66311 17.4207 4.26202 16.4011 3.21621C15.3815 2.1704 13.9954 1.5617 12.5355 1.51864C11.0755 1.47557 9.65595 2.00149 8.57647 2.98538C7.497 3.96927 6.84209 5.33413 6.75 6.79181C6.74434 6.8903 6.71933 6.98671 6.67641 7.07554C6.63348 7.16436 6.57348 7.24387 6.49984 7.30951C6.3511 7.44207 6.15579 7.51012 5.95688 7.49868C5.75796 7.48725 5.57174 7.39726 5.43918 7.24852C5.30661 7.09978 5.23856 6.90447 5.25 6.70556C5.26313 6.47681 5.28719 6.25087 5.32219 6.02774C5.17388 6.00871 5.02452 5.999 4.875 5.99868C3.97989 5.99868 3.12145 6.35426 2.48851 6.9872C1.85558 7.62013 1.5 8.47858 1.5 9.37368C1.5 10.2688 1.85558 11.1272 2.48851 11.7602C3.12145 12.3931 3.97989 12.7487 4.875 12.7487H12.375C13.8663 12.7469 15.296 12.1538 16.3506 11.0992C17.4051 10.0447 17.9983 8.61499 18 7.12368Z" fill="#1DACE0"/>
</svg>
