<svg width="60" height="55" viewBox="0 0 60 55" fill="none" xmlns="http://www.w3.org/2000/svg">
<path d="M57.2727 15.6689C57.996 15.6689 58.6897 15.4626 59.2012 15.0953C59.7127 14.7279 60 14.2298 60 13.7103C59.9946 10.0753 57.9815 6.59029 54.4024 4.01995C50.8234 1.44961 45.9706 0.0038884 40.9091 0H16.3636C14.917 0 13.5296 0.412707 12.5067 1.14733C11.4838 1.88195 10.9091 2.87832 10.9091 3.91723V15.6689C10.9091 17.2273 10.0471 18.7218 8.51269 19.8238C6.9783 20.9257 4.89723 21.5448 2.72727 21.5448C2.00395 21.5448 1.31026 21.7511 0.7988 22.1184C0.287337 22.4857 0 22.9839 0 23.5034C0 24.0228 0.287337 24.521 0.7988 24.8883C1.31026 25.2556 2.00395 25.462 2.72727 25.462C6.34386 25.462 9.81232 24.4302 12.3696 22.5937C14.927 20.7571 16.3636 18.2662 16.3636 15.6689H27.2727V21.6966C27.2762 22.578 27.002 23.4485 26.4707 24.2431C25.9393 25.0376 25.1646 25.7355 24.2045 26.2846L18.75 29.416C17.1501 30.3311 15.8591 31.4942 14.9736 32.8182C14.0881 34.1423 13.6309 35.593 13.6364 37.0619V50.924C13.6364 51.9629 14.211 52.9593 15.234 53.6939C16.2569 54.4285 17.6443 54.8412 19.0909 54.8412H54.5454C55.9921 54.8412 57.3795 54.4285 58.4024 53.6939C59.4253 52.9593 60 51.9629 60 50.924V47.8563C60.0045 36.5944 56.0155 25.5172 48.4091 15.6689H57.2727ZM16.3636 3.91723H40.9091C44.0513 3.92045 47.096 4.70135 49.5302 6.1284C51.9644 7.55544 53.6393 9.54139 54.2727 11.7517H16.3636V3.91723ZM54.5454 47.8563V50.924H19.0909V37.0619C19.0874 36.1805 19.3616 35.3099 19.893 34.5154C20.4243 33.7209 21.199 33.0229 22.1591 32.4738L27.6136 29.3425C29.2135 28.4274 30.5045 27.2643 31.39 25.9402C32.2756 24.6162 32.7327 23.1654 32.7273 21.6966V15.6689H42.1091C50.2508 25.387 54.5503 36.5149 54.5454 47.8563Z" fill="white"/>
</svg>
