<svg width="60" height="55" viewBox="0 0 60 55" fill="none" xmlns="http://www.w3.org/2000/svg">
<path d="M25.7143 16.2493C25.7143 15.4458 25.9656 14.6604 26.4366 13.9924C26.9075 13.3243 27.5768 12.8036 28.3599 12.4962C29.143 12.1887 30.0048 12.1083 30.8361 12.265C31.6674 12.4217 32.4311 12.8086 33.0305 13.3768C33.6298 13.9449 34.038 14.6687 34.2034 15.4567C34.3687 16.2447 34.2839 17.0615 33.9595 17.8038C33.6351 18.5461 33.0858 19.1806 32.381 19.6269C31.6762 20.0733 30.8476 20.3116 30 20.3116C28.8634 20.3116 27.7733 19.8836 26.9695 19.1217C26.1658 18.3599 25.7143 17.3266 25.7143 16.2493ZM12.8571 16.2493C12.8571 11.9397 14.6633 7.80662 17.8782 4.7593C21.0931 1.71197 25.4534 0 30 0C34.5466 0 38.9069 1.71197 42.1218 4.7593C45.3367 7.80662 47.1429 11.9397 47.1429 16.2493C47.1429 31.4702 31.7196 39.9986 31.0714 40.3565C30.7476 40.532 30.381 40.6243 30.008 40.6243C29.635 40.6243 29.2685 40.532 28.9446 40.3565C28.2804 39.9986 12.8571 31.4829 12.8571 16.2493ZM17.1429 16.2493C17.1429 26.9636 26.7429 34.0752 30 36.18C33.2545 34.0777 42.8571 26.9636 42.8571 16.2493C42.8571 13.0171 41.5026 9.91728 39.0914 7.63179C36.6802 5.34629 33.4099 4.06231 30 4.06231C26.5901 4.06231 23.3198 5.34629 20.9086 7.63179C18.4974 9.91728 17.1429 13.0171 17.1429 16.2493ZM50.0277 33.4201C49.5003 33.255 48.9258 33.2904 48.4254 33.5189C47.925 33.7474 47.5378 34.1512 47.3453 34.6451C47.1529 35.139 47.1703 35.6844 47.3939 36.1663C47.6174 36.6483 48.0297 37.0291 48.5437 37.2286C52.9661 38.7799 55.7143 40.8567 55.7143 42.6543C55.7143 46.0463 45.9321 50.7789 30 50.7789C14.0679 50.7789 4.28571 46.0463 4.28571 42.6543C4.28571 40.8567 7.03393 38.7799 11.4563 37.2311C11.9703 37.0317 12.3826 36.6508 12.6061 36.1689C12.8297 35.6869 12.8471 35.1415 12.6547 34.6476C12.4622 34.1537 12.075 33.75 11.5746 33.5215C11.0742 33.2929 10.4997 33.2575 9.97232 33.4227C3.54107 35.6697 0 38.95 0 42.6543C0 50.5707 15.458 54.8412 30 54.8412C44.542 54.8412 60 50.5707 60 42.6543C60 38.95 56.4589 35.6697 50.0277 33.4201Z" fill="white"/>
</svg>
